
<svg version="1.0" xmlns="http://www.w3.org/2000/svg"
 width="70" height="70"  viewBox="0 0 64.000000 64.000000"
 preserveAspectRatio="xMidYMid meet">

<g transform="translate(0.000000,64.000000) scale(0.100000,-0.100000)"
fill="#000000" stroke="none">
<path d="M245 631 c-49 -12 -112 -49 -151 -88 -120 -120 -120 -327 1 -448 121
-121 328 -121 448 -1 42 42 81 114 91 169 l7 37 -61 0 c-56 0 -60 -1 -60 -23
0 -40 -57 -114 -106 -138 -179 -86 -361 96 -275 275 24 49 98 106 138 106 22
0 23 4 23 60 0 64 0 64 -55 51z"/>
<path d="M340 580 c0 -55 2 -60 22 -60 59 0 158 -99 158 -158 0 -20 5 -22 60
-22 l61 0 -7 38 c-23 124 -132 233 -256 256 l-38 7 0 -61z"/>
<path d="M255 475 c-44 -22 -92 -81 -99 -120 -12 -60 3 -105 49 -150 72 -72
159 -72 231 1 68 67 72 152 11 221 -53 60 -129 79 -192 48z m91 -71 c33 -34
31 -48 -6 -41 -44 9 -46 -10 -3 -30 45 -21 54 -53 24 -80 -12 -9 -21 -23 -21
-30 0 -7 -9 -13 -20 -13 -11 0 -20 6 -20 14 0 7 -10 20 -22 28 -29 20 -16 40
18 28 14 -6 30 -8 35 -4 17 10 9 22 -21 29 -17 4 -34 14 -39 23 -9 19 3 62 18
62 5 0 11 9 14 20 7 26 15 25 43 -6z"/>
</g>
</svg>
