<svg version="1.0" xmlns="http://www.w3.org/2000/svg"
 width="70" height="70" viewBox="0 0 64.000000 64.000000"
 preserveAspectRatio="xMidYMid meet">

<g transform="translate(0.000000,64.000000) scale(0.100000,-0.100000)"
fill="#000000" stroke="none">
<path d="M22 577 c-21 -23 -22 -31 -22 -258 0 -233 0 -236 23 -257 23 -21 30
-22 298 -22 275 0 276 0 297 23 21 23 22 31 22 258 0 233 0 236 -23 257 -23
21 -30 22 -298 22 -275 0 -276 0 -297 -23z m580 -14 c13 -11 18 -30 18 -65 l0
-48 -300 0 -300 0 0 47 c0 85 -5 83 298 83 233 0 268 -2 284 -17z m18 -300 c0
-141 -3 -169 -17 -185 -15 -17 -37 -18 -281 -18 -233 0 -268 2 -284 17 -16 14
-18 34 -18 185 l0 168 300 0 300 0 0 -167z"/>
<path d="M51 531 c-8 -15 -7 -23 5 -35 21 -22 56 -3 52 27 -4 30 -43 35 -57 8z
m39 -11 c0 -5 -4 -10 -10 -10 -5 0 -10 5 -10 10 0 6 5 10 10 10 6 0 10 -4 10
-10z"/>
<path d="M157 544 c-12 -12 -8 -41 8 -54 20 -17 47 5 43 34 -3 21 -37 34 -51
20z m33 -24 c0 -5 -4 -10 -10 -10 -5 0 -10 5 -10 10 0 6 5 10 10 10 6 0 10 -4
10 -10z"/>
<path d="M262 538 c-18 -18 -15 -36 7 -48 28 -14 55 13 41 41 -12 22 -30 25
-48 7z m28 -18 c0 -5 -5 -10 -11 -10 -5 0 -7 5 -4 10 3 6 8 10 11 10 2 0 4 -4
4 -10z"/>
<path d="M325 348 c-2 -13 -11 -54 -20 -91 -17 -77 -19 -116 -6 -102 7 8 51
189 51 210 0 16 -20 1 -25 -17z"/>
<path d="M213 300 c-18 -16 -33 -34 -33 -39 0 -13 71 -73 78 -67 3 4 -7 20
-23 36 l-29 30 27 28 c47 49 31 59 -20 12z"/>
<path d="M380 323 c0 -4 12 -20 27 -35 l27 -28 -29 -30 c-16 -16 -26 -32 -23
-36 7 -6 78 54 78 67 0 11 -61 68 -72 69 -5 0 -8 -3 -8 -7z"/>
</g>
</svg>