
<svg version="1.0" xmlns="http://www.w3.org/2000/svg"
 width="120" height="120" viewBox="0 0 64.000000 64.000000"
 preserveAspectRatio="xMidYMid meet">

<g transform="translate(0.000000,64.000000) scale(0.100000,-0.100000)"
fill="#D3DEDC" stroke="none">
<path d="M255 626 c-102 -44 -124 -181 -41 -254 140 -123 338 67 219 209 -47
55 -116 72 -178 45z m121 -42 c95 -63 52 -214 -61 -214 -57 0 -115 58 -115
115 0 87 104 145 176 99z"/>
<path d="M129 307 c-41 -27 -57 -58 -71 -135 -14 -78 4 -130 52 -154 29 -15
63 -18 210 -18 203 0 236 9 257 70 26 75 -11 204 -69 240 -42 26 -62 25 -106
-2 -23 -14 -52 -22 -82 -22 -30 0 -59 8 -82 22 -45 28 -67 28 -109 -1z m101
-37 c53 -27 127 -26 184 2 38 18 49 20 71 10 40 -19 76 -127 61 -186 -13 -54
-22 -56 -227 -56 -180 0 -190 1 -210 21 -19 19 -21 29 -16 85 7 68 26 117 54
133 26 15 39 13 83 -9z"/>
</g>
</svg>
