<svg version="1.0" xmlns="http://www.w3.org/2000/svg"
 width="120" height="120" viewBox="0 0 64.000000 64.000000"
 preserveAspectRatio="xMidYMid meet">

<g transform="translate(0.000000,64.000000) scale(0.100000,-0.100000)"
fill="#D3DEDC" stroke="none">
<path d="M164 616 c-53 -23 -74 -60 -74 -132 0 -54 3 -64 20 -69 11 -3 20 -12
20 -19 0 -8 7 -19 15 -26 22 -18 18 -30 -10 -30 -39 0 -83 -27 -101 -61 -11
-22 -15 -52 -12 -105 2 -54 0 -74 -9 -74 -9 0 -13 -16 -13 -45 l0 -45 320 0
320 0 0 45 c0 25 -4 45 -10 45 -6 0 -10 43 -10 108 0 71 -4 112 -12 120 -8 8
-60 12 -170 12 -87 0 -158 4 -158 9 0 5 7 14 15 21 8 7 15 18 15 26 0 7 9 15
19 19 24 7 32 39 24 90 -15 97 -102 148 -189 111z m139 -46 c25 -28 37 -80 19
-80 -5 0 -19 11 -32 25 l-23 24 -30 -21 c-16 -12 -51 -23 -78 -26 -47 -4 -49
-3 -49 20 0 29 33 76 64 89 40 17 99 3 129 -31z m-18 -84 c20 -31 11 -90 -18
-117 -47 -44 -117 -8 -117 60 0 36 2 39 33 45 19 3 42 13 53 21 26 20 31 19
49 -9z m-163 -48 c-9 -9 -12 -7 -12 12 0 19 3 21 12 12 9 -9 9 -15 0 -24z
m205 0 c-3 -7 -5 -2 -5 12 0 14 2 19 5 13 2 -7 2 -19 0 -25z m-79 -125 c-2
-12 -12 -18 -28 -18 -16 0 -26 6 -28 18 -3 13 3 17 28 17 25 0 31 -4 28 -17z
m-78 -8 c0 -24 45 -40 75 -27 14 6 25 18 25 27 0 8 9 15 20 15 18 0 20 -7 20
-86 l0 -86 -37 7 c-75 13 -183 17 -183 6 0 -6 21 -11 50 -11 47 0 50 -2 50
-25 0 -26 -1 -26 -72 -23 l-73 3 -3 78 c-3 75 -2 79 27 107 33 34 101 44 101
15z m425 -95 l0 -105 -132 -3 -133 -3 0 104 c0 57 3 107 7 111 4 3 63 5 132 4
l126 -3 0 -105z m-344 -91 c8 -16 6 -19 -16 -19 -20 0 -25 5 -25 25 0 28 24
25 41 -6z m59 -4 c0 -8 -6 -15 -14 -15 -8 0 -16 7 -20 15 -4 10 1 15 14 15 11
0 20 -7 20 -15z m310 -60 l0 -25 -300 0 -300 0 0 25 0 25 300 0 300 0 0 -25z"/>
<path d="M432 248 c-7 -7 -12 -24 -12 -38 0 -31 17 -50 45 -50 28 0 45 19 45
50 0 31 -17 50 -45 50 -12 0 -26 -5 -33 -12z m53 -38 c0 -16 -6 -26 -18 -28
-19 -4 -32 20 -23 44 9 25 41 13 41 -16z"/>
</g>
</svg>
