

<svg style="color: red" className='academic' version="1.0" xmlns="http://www.w3.org/2000/svg"
 width="150" height="150" viewBox="0 0 64.000000 64.000000"
 preserveAspectRatio="xMidYMid meet">

<g transform="translate(0.000000,64.000000) scale(0.100000,-0.100000)"
fill="#D3DEDC" stroke="none">
<path d="M169 536 c-81 -30 -152 -57 -158 -61 -22 -13 -6 -27 54 -50 l60 -22
3 -54 c4 -89 7 -96 59 -116 65 -25 201 -25 266 0 52 20 55 27 59 116 3 45 6
55 26 62 22 8 22 7 22 -75 0 -70 -3 -86 -20 -101 -25 -23 -26 -57 -1 -80 12
-10 21 -33 23 -56 4 -51 22 -51 26 0 2 23 11 46 23 56 25 23 24 61 -1 82 -17
15 -20 30 -20 105 0 85 1 89 25 98 30 11 32 26 6 40 -17 8 -302 111 -305 109
-1 0 -67 -24 -147 -53z m271 -30 c110 -39 122 -45 100 -54 -14 -5 -69 -24
-122 -43 l-98 -34 -97 34 c-54 19 -109 38 -123 44 -22 8 -12 14 95 52 66 24
120 43 120 44 1 1 57 -19 125 -43z m-44 -144 l75 27 -3 -57 c-3 -57 -3 -57
-43 -70 -48 -16 -199 -12 -232 6 -20 11 -23 21 -23 67 l0 54 75 -27 76 -27 75
27z m194 -168 c0 -8 -7 -14 -15 -14 -15 0 -21 21 -9 33 10 9 24 -2 24 -19z"/>
</g>
</svg>