
<svg version="1.0" xmlns="http://www.w3.org/2000/svg"
 width="70" height="70" viewBox="0 0 64.000000 64.000000"
 preserveAspectRatio="xMidYMid meet">

<g transform="translate(0.000000,64.000000) scale(0.100000,-0.100000)"
fill="#000000" stroke="none">
<path d="M245 611 c-89 -41 -136 -143 -105 -227 6 -15 8 -30 4 -33 -4 -3 -9 0
-11 7 -3 8 -26 12 -64 12 l-59 0 0 -125 0 -125 59 0 c38 0 61 4 64 13 3 7 32
-15 74 -56 65 -63 94 -79 108 -58 10 18 65 39 85 34 11 -3 27 1 36 8 9 8 22
14 28 15 30 3 34 5 40 20 4 9 -1 28 -10 41 -12 20 -13 28 -4 37 9 8 14 8 17
-1 3 -9 26 -13 64 -13 l59 0 0 125 0 125 -60 0 -60 0 0 33 c0 17 -9 50 -19 72
-45 98 -152 140 -246 96z m65 -31 c0 -25 -4 -30 -25 -30 -31 0 -31 7 -3 37 27
29 28 29 28 -7z m70 -22 c0 -4 -11 -8 -25 -8 -21 0 -25 5 -25 32 l0 31 25 -23
c14 -13 25 -27 25 -32z m-126 27 c-4 -8 -14 -15 -23 -15 -14 1 -13 3 3 15 25
19 27 19 20 0z m166 -10 c0 -12 -29 -3 -34 10 -4 13 -2 14 14 5 11 -6 20 -13
20 -15z m-196 -38 c0 -9 -1 -33 -2 -52 -2 -33 -4 -35 -37 -35 -41 0 -43 8 -14
67 21 44 55 57 53 20z m237 -8 c10 -13 21 -36 25 -51 6 -26 4 -28 -29 -28 -34
0 -35 1 -40 47 -8 70 8 82 44 32z m-153 -42 c3 -36 3 -37 -32 -37 -31 0 -36 3
-36 23 0 51 10 65 38 58 22 -6 28 -14 30 -44z m91 -9 c1 -25 -2 -28 -35 -28
-35 0 -35 1 -32 37 2 30 8 38 28 43 28 7 38 -7 39 -52z m-177 -88 c3 -38 2
-40 -23 -40 -21 0 -29 7 -38 31 -16 46 -15 49 23 49 32 0 34 -2 38 -40z m88
22 c0 -10 -11 -29 -26 -42 -21 -21 -27 -22 -34 -10 -5 8 -10 27 -10 43 0 24 3
27 35 27 27 0 35 -4 35 -18z m90 -2 c0 -16 -7 -20 -35 -20 -28 0 -35 4 -35 20
0 16 7 20 35 20 28 0 35 -4 35 -20z m88 3 c-2 -12 -14 -19 -36 -21 -27 -3 -32
0 -32 17 0 17 6 21 36 21 28 0 35 -3 32 -17z m122 -128 l0 -105 -40 0 -40 0 0
105 0 105 40 0 40 0 0 -105z m-100 3 c0 -80 -1 -83 -27 -96 -26 -12 -30 -10
-93 53 l-65 65 38 0 c20 0 37 5 37 10 0 6 -17 10 -37 10 -28 0 -45 -8 -70 -32
-26 -25 -36 -29 -45 -20 -9 9 -3 21 27 52 l39 40 98 0 98 0 0 -82z m-400 -43
l0 -105 -40 0 -40 0 0 105 0 105 40 0 40 0 0 -105z m122 73 c-20 -20 -14 -48
13 -60 21 -10 29 -8 48 10 l23 22 89 -90 c70 -71 87 -92 77 -102 -10 -10 -23
-2 -62 37 -58 58 -82 53 -25 -5 31 -31 36 -43 27 -52 -10 -10 -24 0 -67 42
-62 61 -90 61 -30 0 30 -31 36 -43 27 -52 -9 -9 -22 -2 -57 32 -55 54 -74 45
-20 -10 31 -31 36 -43 27 -52 -10 -10 -27 2 -80 55 -37 37 -73 67 -80 67 -8 0
-12 25 -12 85 l0 85 57 0 c44 0 54 -3 45 -12z"/>
</g>
</svg>
