
<svg version="1.0" xmlns="http://www.w3.org/2000/svg"
 width="120" height="120" viewBox="0 0 64.000000 64.000000"
 preserveAspectRatio="xMidYMid meet">

<g transform="translate(0.000000,64.000000) scale(0.100000,-0.100000)"
fill="#D3DEDC" stroke="none">
<path d="M135 585 c-14 -13 -25 -31 -25 -40 0 -12 -12 -15 -55 -15 l-55 0 0
-75 0 -75 36 0 c28 0 35 -3 32 -17 -2 -12 -14 -19 -36 -21 l-32 -3 0 -75 0
-74 75 0 75 0 0 35 c0 28 4 35 20 35 16 0 20 -7 20 -35 l0 -35 77 0 76 0 -23
-25 -24 -26 52 -52 52 -51 40 39 c31 30 43 36 52 27 22 -22 66 -14 85 14 16
24 16 29 1 54 -16 27 -15 29 23 66 l39 38 -40 41 c-36 37 -39 43 -25 55 20 17
19 53 -3 73 -22 20 -63 22 -80 5 -9 -9 -21 -3 -52 27 l-40 39 -30 -29 -30 -29
0 37 0 37 -55 0 c-43 0 -55 3 -55 15 0 18 -44 65 -60 65 -6 0 -22 -11 -35 -25z
m53 -58 l3 -37 55 0 54 0 0 -55 0 -55 36 0 c28 0 35 -3 32 -17 -2 -12 -14 -19
-36 -21 -32 -3 -32 -4 -32 -58 l0 -54 -32 0 c-27 0 -36 6 -48 33 -13 27 -20
32 -50 32 -30 0 -37 -5 -50 -32 -12 -27 -21 -33 -47 -33 -31 0 -33 2 -33 33 0
28 5 36 33 48 27 12 32 19 32 49 0 30 -5 37 -32 50 -27 12 -33 21 -33 48 l0
32 55 0 55 0 0 33 c0 61 33 63 38 4z m253 -103 l38 -37 26 22 c43 33 65 2 25
-34 -20 -19 -20 -19 15 -55 19 -20 35 -40 35 -45 0 -5 -16 -25 -35 -45 -35
-36 -35 -36 -15 -55 40 -36 18 -67 -25 -34 l-26 22 -40 -39 -39 -38 -27 27
c-21 21 -25 29 -15 39 17 17 15 63 -3 78 -8 7 -15 25 -15 41 0 22 6 30 25 35
49 12 61 73 20 100 -24 16 -25 18 -9 35 10 11 20 19 23 19 3 0 22 -16 42 -36z"/>
</g>
</svg>
