
<svg version="1.0" xmlns="http://www.w3.org/2000/svg"
 width="120" height="120" viewBox="0 0 64.000000 64.000000"
 preserveAspectRatio="xMidYMid meet">

<g transform="translate(0.000000,64.000000) scale(0.100000,-0.100000)"
fill="#D3DEDC" stroke="none">
<path d="M230 631 c-86 -27 -161 -101 -186 -187 -20 -69 -14 -120 22 -206 14
-34 31 -101 37 -150 l11 -88 138 0 138 0 0 45 0 45 55 0 c67 0 95 22 95 74 0
29 4 34 29 39 40 8 45 30 22 101 -10 34 -24 87 -30 118 -32 152 -190 252 -331
209z m166 -50 c69 -31 134 -124 134 -192 0 -9 9 -42 20 -74 26 -74 26 -75 -10
-75 -29 0 -30 -2 -30 -44 0 -24 -6 -48 -13 -54 -7 -6 -40 -12 -72 -14 l-60 -3
-3 -43 -3 -42 -108 0 -108 0 -6 68 c-3 40 -18 98 -36 144 -46 114 -39 192 25
267 67 77 179 103 270 62z"/>
<path d="M193 515 l-33 -14 0 -106 c0 -85 3 -105 14 -105 8 0 18 5 22 11 4 7
22 9 48 5 51 -8 61 -8 112 0 26 4 44 2 48 -5 4 -6 14 -11 22 -11 11 0 14 20
14 106 l0 105 -37 16 c-29 12 -45 13 -71 5 -22 -7 -43 -7 -59 -1 -32 12 -41
11 -80 -6z m71 -31 c12 -5 16 -21 16 -70 l0 -64 -45 0 -45 0 0 58 c0 74 22 96
74 76z m134 -6 c7 -7 12 -38 12 -70 l0 -58 -45 0 -45 0 0 64 c0 42 4 66 13 69
22 10 53 7 65 -5z"/>
</g>
</svg>
